<?xml version="1.0" encoding="UTF-8" standalone="no"?>
<!-- Created with Inkscape (http://www.inkscape.org/) -->

<svg
   xmlns:dc="http://purl.org/dc/elements/1.1/"
   xmlns:cc="http://creativecommons.org/ns#"
   xmlns:rdf="http://www.w3.org/1999/02/22-rdf-syntax-ns#"
   xmlns:svg="http://www.w3.org/2000/svg"
   xmlns="http://www.w3.org/2000/svg"
   xmlns:sodipodi="http://sodipodi.sourceforge.net/DTD/sodipodi-0.dtd"
   xmlns:inkscape="http://www.inkscape.org/namespaces/inkscape"
   width="193.74161mm"
   height="154.94mm"
   viewBox="0 0 686.48601 549.00001"
   id="svg4860"
   version="1.1"
   inkscape:version="0.91 r13725"
   sodipodi:docname="laranja.svg">
  <defs
     id="defs4862" />
  <sodipodi:namedview
     id="base"
     pagecolor="#ffffff"
     bordercolor="#666666"
     borderopacity="1.0"
     inkscape:pageopacity="0.0"
     inkscape:pageshadow="2"
     inkscape:zoom="1"
     inkscape:cx="93.743011"
     inkscape:cy="405.5232"
     inkscape:document-units="px"
     inkscape:current-layer="svg4860"
     showgrid="false"
     fit-margin-top="0"
     fit-margin-left="0"
     fit-margin-right="0"
     fit-margin-bottom="0"
     inkscape:window-width="1865"
     inkscape:window-height="1056"
     inkscape:window-x="55"
     inkscape:window-y="24"
     inkscape:window-maximized="1" />
  <metadata
     id="metadata4865">
    <rdf:RDF>
      <cc:Work
         rdf:about="">
        <dc:format>image/svg+xml</dc:format>
        <dc:type
           rdf:resource="http://purl.org/dc/dcmitype/StillImage" />
        <dc:title></dc:title>
      </cc:Work>
    </rdf:RDF>
  </metadata>
  <g
     inkscape:label="laranja"
     inkscape:groupmode="layer"
     id="laranja"
     transform="translate(-36.756989,-297.86221)"
     style="display:inline">
    <g
       id="g5564">
      <g
         transform="translate(163.86086,65.499996)"
         id="g4299"
         style="display:inline">
        <path
           style="fill:#668000;fill-rule:evenodd;stroke:none;stroke-width:1px;stroke-linecap:butt;stroke-linejoin:miter;stroke-opacity:1"
           d="m 171.23697,285.27559 c 0,0 -165.2258452,-46.51601 -222.6771,36.2208 -57.45125,82.73682 -95.24875,213.66717 -64.93578,253.34772 30.312958,39.68056 225.28135,-48.60033 287.61288,-289.56852 z"
           id="path4248"
           inkscape:connector-curvature="0" />
        <circle
           style="fill:#ff7f2a"
           id="path4209"
           cx="231.5"
           cy="506.86221"
           r="274.5" />
      </g>
      <circle
         style="fill:#ffffff;fill-rule:evenodd;stroke:#000000;stroke-width:2.5;stroke-linecap:butt;stroke-linejoin:miter;stroke-miterlimit:4;stroke-dasharray:none;stroke-opacity:1"
         id="circle4502"
         cx="377.86087"
         cy="536.43231"
         r="118" />
      <circle
         style="fill:#0082ff;fill-opacity:1;fill-rule:evenodd;stroke:none;stroke-width:0.625;stroke-linecap:butt;stroke-linejoin:miter;stroke-miterlimit:4;stroke-dasharray:none;stroke-opacity:1"
         id="circle4504"
         cx="395.86087"
         cy="536.43231"
         r="84.143463" />
      <circle
         style="fill:#000000;fill-rule:evenodd;stroke:#000000;stroke-width:0.625;stroke-linecap:butt;stroke-linejoin:miter;stroke-miterlimit:4;stroke-dasharray:none;stroke-opacity:1"
         id="circle4506"
         cx="395.86087"
         cy="536.43231"
         r="54.270046" />
      <ellipse
         style="fill:#ffffff;fill-rule:evenodd;stroke:#000000;stroke-width:2.5;stroke-linecap:butt;stroke-linejoin:miter;stroke-miterlimit:4;stroke-dasharray:none;stroke-opacity:1"
         id="ellipse4508"
         cx="623.86084"
         cy="536.43231"
         rx="99.069641"
         ry="104.12041" />
      <circle
         style="fill:#0082ff;fill-opacity:1;fill-rule:evenodd;stroke:none;stroke-width:0.625;stroke-linecap:butt;stroke-linejoin:miter;stroke-miterlimit:4;stroke-dasharray:none;stroke-opacity:1"
         id="circle4510"
         cx="606.41492"
         cy="536.43231"
         r="70.134872" />
      <circle
         style="fill:#000000;fill-rule:evenodd;stroke:#000000;stroke-width:0.625;stroke-linecap:butt;stroke-linejoin:miter;stroke-miterlimit:4;stroke-dasharray:none;stroke-opacity:1"
         id="circle4512"
         cx="606.41492"
         cy="536.43231"
         r="45.234921" />
      <ellipse
         transform="matrix(0.83715345,0.54696809,-0.54696809,0.83715345,0,0)"
         ry="4.5"
         rx="15"
         cy="92.243767"
         cx="796.59149"
         id="ellipse4522"
         style="display:inline;fill:#ffffff;fill-opacity:1;stroke:none;stroke-width:1.25;stroke-miterlimit:4;stroke-dasharray:none;stroke-opacity:1" />
      <ellipse
         transform="matrix(0.83715345,0.54696809,-0.54696809,0.83715345,0,0)"
         ry="4.5"
         rx="15"
         cy="195.02849"
         cx="630.1535"
         id="ellipse4524"
         style="display:inline;fill:#ffffff;fill-opacity:1;stroke:none;stroke-width:1.25;stroke-miterlimit:4;stroke-dasharray:none;stroke-opacity:1" />
    </g>
  </g>
  <g
     inkscape:groupmode="layer"
     id="fechado"
     inkscape:label="fechado"
     style="display:inline">
    <path
       style="fill:#800000;fill-rule:evenodd;stroke:none;stroke-width:0.625;stroke-linecap:butt;stroke-linejoin:miter;stroke-miterlimit:4;stroke-dasharray:none;stroke-opacity:1"
       d="m 356.86086,63.9535 c -26,0 -107,12 -111,31 -4,19 85,4 117,-3 32,-7 27,-31 -6,-28 z"
       id="path4516"
       inkscape:connector-curvature="0" />
    <path
       style="display:inline;fill:#800000;fill-rule:evenodd;stroke:none;stroke-width:0.625;stroke-linecap:butt;stroke-linejoin:miter;stroke-miterlimit:4;stroke-dasharray:none;stroke-opacity:1"
       d="m 630.05019,76.7432 c -25.34927,-5.7805 -106.98994,-12.08933 -115.11404,5.54583 -8.1241,17.63516 81.98333,22.79769 114.73871,23.08735 32.7554,0.28966 33.21639,-24.2213 0.37533,-28.63318 z"
       id="path4518"
       inkscape:connector-curvature="0" />
    <path
       style="fill:none;fill-rule:evenodd;stroke:#000000;stroke-width:9.5;stroke-linecap:butt;stroke-linejoin:miter;stroke-miterlimit:4;stroke-dasharray:none;stroke-opacity:1"
       d="m 540.86086,403.12499 c 0,0 -142,32 -183,-2"
       id="path4600"
       inkscape:connector-curvature="0" />
  </g>
  <g
     inkscape:groupmode="layer"
     id="feliz"
     inkscape:label="feliz"
     style="display:inline">
    <path
       style="display:inline;fill:#000000;fill-rule:evenodd;stroke:#000000;stroke-width:0.625;stroke-linecap:butt;stroke-linejoin:miter;stroke-miterlimit:4;stroke-dasharray:none;stroke-opacity:1"
       d="m 535.75699,368.29644 c 0,0 -141,2.23797 -149,-1.11899 -8,-3.35695 -44.00001,107.4226 38,108.54159 82,1.11898 103,-17.90377 103,-17.90377 0,0 -35,-45.34266 8,-89.51883 z"
       id="path4204"
       inkscape:connector-curvature="0" />
    <path
       inkscape:connector-curvature="0"
       id="path4220"
       d="m 356.75699,64.69072 c -26.00001,0 -107.00001,11.99999 -111.00001,30.99999 -4,19 85,4 117.00001,-3 32,-7 27,-30.99999 -6,-27.99999 z"
       style="display:inline;fill:#800000;fill-rule:evenodd;stroke:none;stroke-width:0.625;stroke-linecap:butt;stroke-linejoin:miter;stroke-miterlimit:4;stroke-dasharray:none;stroke-opacity:1" />
    <path
       inkscape:connector-curvature="0"
       id="path4220-7"
       d="m 629.94632,77.48042 c -25.34927,-5.7805 -106.98994,-12.08933 -115.11404,5.54582 -8.1241,17.63517 81.98333,22.79769 114.73871,23.08735 32.7554,0.28967 33.21639,-24.22129 0.37533,-28.63317 z"
       style="display:inline;fill:#800000;fill-rule:evenodd;stroke:none;stroke-width:0.625;stroke-linecap:butt;stroke-linejoin:miter;stroke-miterlimit:4;stroke-dasharray:none;stroke-opacity:1" />
    <path
       style="display:inline;fill:#d70000;fill-opacity:1;fill-rule:evenodd;stroke:#000000;stroke-width:0.625;stroke-linecap:butt;stroke-linejoin:miter;stroke-miterlimit:4;stroke-dasharray:none;stroke-opacity:1"
       d="m 389.75699,458.6799 c 17,10 50,13 83,9 33,-4 18,-22 -6,-24 -24,-2 -87,-13 -77,15 z"
       id="path4250"
       inkscape:connector-curvature="0" />
  </g>
  <g
     inkscape:groupmode="layer"
     id="surpreso"
     inkscape:label="surpreso"
     style="display:inline">
    <path
       style="display:inline;fill:#000000;fill-rule:evenodd;stroke:#000000;stroke-width:0.76180983px;stroke-linecap:butt;stroke-linejoin:miter;stroke-opacity:1"
       d="m 482.91863,440.5683 c 6.30252,-11.78661 16.48319,-26.94326 0.7269,-34.30989 -15.7563,-7.36663 -59.08611,-9.57663 -70.1155,1.47333 -11.02941,11.04995 -22.84664,48.61978 0,56.72308 22.84662,8.10329 49.63231,11.04995 55.14702,-1.47332 5.51469,-12.52328 14.24158,-22.4132 14.24158,-22.4132 z"
       id="path4641"
       inkscape:connector-curvature="0"
       sodipodi:nodetypes="cssssc" />
    <path
       inkscape:connector-curvature="0"
       id="path4548"
       d="M 356.00001,64.828514 C 330,64.828514 249,76.828505 245,95.828505 c -4,18.999995 85,4 117.00001,-3 32,-7 27,-30.999991 -6,-27.999991 z"
       style="display:inline;fill:#800000;fill-rule:evenodd;stroke:none;stroke-width:0.625;stroke-linecap:butt;stroke-linejoin:miter;stroke-miterlimit:4;stroke-dasharray:none;stroke-opacity:1" />
    <path
       inkscape:connector-curvature="0"
       id="path4550"
       d="M 629.18934,77.618215 C 603.84007,71.837714 522.1994,65.528884 514.0753,83.164035 c -8.1241,17.635165 81.98333,22.797685 114.73871,23.087345 32.7554,0.28967 33.21639,-24.221285 0.37533,-28.633165 z"
       style="display:inline;fill:#800000;fill-rule:evenodd;stroke:none;stroke-width:0.625;stroke-linecap:butt;stroke-linejoin:miter;stroke-miterlimit:4;stroke-dasharray:none;stroke-opacity:1" />
    <path
       style="display:inline;fill:#d70000;fill-opacity:1;fill-rule:evenodd;stroke:#000000;stroke-width:0.3506681;stroke-linecap:butt;stroke-linejoin:miter;stroke-miterlimit:4;stroke-dasharray:none;stroke-opacity:1"
       d="m 410.42071,452.8234 c 8.48899,6.30413 24.96763,8.19537 41.44625,5.67372 16.47864,-2.52165 8.98834,-13.86909 -2.99611,-15.12992 -11.98446,-1.26083 -43.44366,-8.19537 -38.45014,9.4562 z"
       id="path4552"
       inkscape:connector-curvature="0" />
  </g>
</svg>
