<?xml version="1.0" encoding="UTF-8" standalone="no"?>
<!-- Created with Inkscape (http://www.inkscape.org/) -->

<svg
   xmlns:dc="http://purl.org/dc/elements/1.1/"
   xmlns:cc="http://creativecommons.org/ns#"
   xmlns:rdf="http://www.w3.org/1999/02/22-rdf-syntax-ns#"
   xmlns:svg="http://www.w3.org/2000/svg"
   xmlns="http://www.w3.org/2000/svg"
   xmlns:sodipodi="http://sodipodi.sourceforge.net/DTD/sodipodi-0.dtd"
   xmlns:inkscape="http://www.inkscape.org/namespaces/inkscape"
   width="145.18883mm"
   height="194.63478mm"
   viewBox="0 0 514.4486 689.6508"
   id="svg2"
   version="1.1"
   inkscape:version="0.91 r13725"
   inkscape:export-filename="/home/lucas/Codes/organica/scroll/img/rosto_sério_aberto.png"
   inkscape:export-xdpi="90"
   inkscape:export-ydpi="90"
   sodipodi:docname="pimentao_surpreso.svg">
  <defs
     id="defs4">
    <inkscape:path-effect
       effect="skeletal"
       id="path-effect4436"
       is_visible="true"
       pattern="M 0,0 1,0"
       copytype="repeated"
       prop_scale="1"
       scale_y_rel="false"
       spacing="0"
       normal_offset="0"
       tang_offset="0"
       prop_units="false"
       vertical_pattern="false"
       fuse_tolerance="0" />
    <inkscape:path-effect
       effect="skeletal"
       id="path-effect4382"
       is_visible="true"
       pattern="M 0,0 1,0"
       copytype="repeated"
       prop_scale="1.18"
       scale_y_rel="false"
       spacing="0.4"
       normal_offset="1.4"
       tang_offset="-0.9"
       prop_units="false"
       vertical_pattern="true"
       fuse_tolerance="0" />
  </defs>
  <sodipodi:namedview
     id="base"
     pagecolor="#ffffff"
     bordercolor="#666666"
     borderopacity="1.0"
     inkscape:pageopacity="0.0"
     inkscape:pageshadow="2"
     inkscape:zoom="1"
     inkscape:cx="-257.5895"
     inkscape:cy="382.0391"
     inkscape:document-units="px"
     inkscape:current-layer="g4526"
     showgrid="false"
     inkscape:snap-object-midpoints="false"
     inkscape:snap-others="true"
     inkscape:window-width="1865"
     inkscape:window-height="1056"
     inkscape:window-x="55"
     inkscape:window-y="24"
     inkscape:window-maximized="1"
     fit-margin-top="0"
     fit-margin-left="0"
     fit-margin-right="0"
     fit-margin-bottom="0" />
  <metadata
     id="metadata7">
    <rdf:RDF>
      <cc:Work
         rdf:about="">
        <dc:format>image/svg+xml</dc:format>
        <dc:type
           rdf:resource="http://purl.org/dc/dcmitype/StillImage" />
        <dc:title></dc:title>
      </cc:Work>
    </rdf:RDF>
  </metadata>
  <g
     inkscape:groupmode="layer"
     id="layer7"
     inkscape:label="Pimentão"
     style="display:inline"
     transform="translate(-164.62104,-197.77403)">
    <g
       id="g4490"
       transform="translate(0,49.521503)">
      <path
         inkscape:connector-curvature="0"
         id="path4488"
         d="m 456,298.3622 c 0,0 13,-68 5,-94 -8,-26 -46,-63 -83,-55 -37,8 -58,41.73722 -58,41.73722 l 39,30.26278 c 0,0 17,-21 29,-17 12,4 -31,95 -31,95 z"
         style="fill:#445500;fill-rule:evenodd;stroke:none;stroke-width:1px;stroke-linecap:butt;stroke-linejoin:miter;stroke-opacity:1" />
      <path
         sodipodi:nodetypes="cssssscsssssscsc"
         inkscape:connector-curvature="0"
         id="path4486"
         d="m 401.14344,280.37412 c -30,-6.68235 -54.67515,-22.5815 -84,-20.04705 -49.50764,4.27877 -38,26.7294 -54,23.86553 -16,-2.86386 -27.63598,-17.53051 -57,-12.41008 -25.51997,4.45013 -45,14.31933 -41,54.41343 2.18061,21.85739 18,441.03511 62,481.12921 44,40.0941 76,3.81849 76,3.81849 0,0 31.02193,28.06461 71,25.77478 50,-2.86387 64.54574,-11.8462 76,-20.04705 0,0 23,21.95629 51,21.00167 28,-0.95462 45,-5.72773 56,-43.91259 11,-38.18486 85,-469.67376 80,-496.40316 -5,-26.7294 -19,-39.13948 -40,-38.18485 -21,0.95462 -34,14.31932 -34,14.31932 0,0 -15,-24.82016 -65,-24.82016 -66,0 -42,31.50251 -97,31.50251 z"
         style="fill:#af2b2e;fill-opacity:1;fill-rule:evenodd;stroke:none;stroke-width:1px;stroke-linecap:butt;stroke-linejoin:miter;stroke-opacity:1" />
    </g>
  </g>
  <g
     inkscape:label="Feliz o"
     inkscape:groupmode="layer"
     id="g4526"
     style="display:inline"
     transform="translate(-164.62104,-197.77403)">
    <path
       style="fill:#000000;fill-rule:evenodd;stroke:#000000;stroke-width:0.76180983px;stroke-linecap:butt;stroke-linejoin:miter;stroke-opacity:1"
       d="m 487.91862,712.93049 c 6.30252,-11.78661 16.48319,-26.94326 0.7269,-34.30989 -15.7563,-7.36663 -59.08611,-9.57663 -70.1155,1.47333 -11.02941,11.04995 -22.84664,48.61978 0,56.72308 22.84662,8.10329 49.63231,11.04995 55.14702,-1.47332 5.51469,-12.52328 14.24158,-22.4132 14.24158,-22.4132 z"
       id="path4641"
       inkscape:connector-curvature="0"
       sodipodi:nodetypes="cssssc" />
    <circle
       style="fill:#ffffff;fill-rule:evenodd;stroke:none;stroke-width:0.625;stroke-linecap:butt;stroke-linejoin:miter;stroke-miterlimit:4;stroke-dasharray:none;stroke-opacity:1"
       id="circle4534"
       cx="334"
       cy="506.66949"
       r="118" />
    <circle
       style="fill:#0082ff;fill-opacity:1;fill-rule:evenodd;stroke:none;stroke-width:0.625;stroke-linecap:butt;stroke-linejoin:miter;stroke-miterlimit:4;stroke-dasharray:none;stroke-opacity:1"
       id="circle4536"
       cx="352"
       cy="506.66949"
       r="84.143463" />
    <circle
       style="fill:#000000;fill-rule:evenodd;stroke:none;stroke-width:0.625;stroke-linecap:butt;stroke-linejoin:miter;stroke-miterlimit:4;stroke-dasharray:none;stroke-opacity:1"
       id="circle4538"
       cx="352"
       cy="506.66949"
       r="54.270046" />
    <ellipse
       style="fill:#ffffff;fill-rule:evenodd;stroke:none;stroke-width:0.625;stroke-linecap:butt;stroke-linejoin:miter;stroke-miterlimit:4;stroke-dasharray:none;stroke-opacity:1"
       id="ellipse4540"
       cx="580"
       cy="506.66949"
       rx="99.069641"
       ry="104.12041" />
    <circle
       style="fill:#0082ff;fill-opacity:1;fill-rule:evenodd;stroke:none;stroke-width:0.625;stroke-linecap:butt;stroke-linejoin:miter;stroke-miterlimit:4;stroke-dasharray:none;stroke-opacity:1"
       id="circle4542"
       cx="562.55408"
       cy="506.66949"
       r="70.134872" />
    <circle
       style="fill:#000000;fill-rule:evenodd;stroke:none;stroke-width:0.625;stroke-linecap:butt;stroke-linejoin:miter;stroke-miterlimit:4;stroke-dasharray:none;stroke-opacity:1"
       id="circle4544"
       cx="562.55408"
       cy="506.66949"
       r="45.234921" />
    <path
       inkscape:connector-curvature="0"
       id="path4548"
       d="m 361,337.19071 c -26,0 -107,12 -111,31 -4,19 85,4 117,-3 32,-7 27,-31 -6,-28 z"
       style="fill:#800000;fill-rule:evenodd;stroke:none;stroke-width:0.625;stroke-linecap:butt;stroke-linejoin:miter;stroke-miterlimit:4;stroke-dasharray:none;stroke-opacity:1" />
    <path
       inkscape:connector-curvature="0"
       id="path4550"
       d="m 634.18933,349.98041 c -25.34927,-5.7805 -106.98994,-12.08933 -115.11404,5.54583 -8.1241,17.63516 81.98333,22.79769 114.73871,23.08735 32.7554,0.28966 33.21639,-24.2213 0.37533,-28.63318 z"
       style="display:inline;fill:#800000;fill-rule:evenodd;stroke:none;stroke-width:0.625;stroke-linecap:butt;stroke-linejoin:miter;stroke-miterlimit:4;stroke-dasharray:none;stroke-opacity:1" />
    <ellipse
       transform="matrix(0.83715345,0.54696809,-0.54696809,0.83715345,0,0)"
       ry="4.5"
       rx="15"
       cy="91.318237"
       cx="743.59393"
       id="ellipse4554"
       style="display:inline;fill:#ffffff;fill-opacity:1;stroke:none;stroke-width:1.25;stroke-miterlimit:4;stroke-dasharray:none;stroke-opacity:1" />
    <ellipse
       transform="matrix(0.83715345,0.54696809,-0.54696809,0.83715345,0,0)"
       ry="4.5"
       rx="15"
       cy="194.10297"
       cx="577.15594"
       id="ellipse4556"
       style="display:inline;fill:#ffffff;fill-opacity:1;stroke:none;stroke-width:1.25;stroke-miterlimit:4;stroke-dasharray:none;stroke-opacity:1" />
    <path
       style="fill:#d70000;fill-opacity:1;fill-rule:evenodd;stroke:#000000;stroke-width:0.3506681;stroke-linecap:butt;stroke-linejoin:miter;stroke-miterlimit:4;stroke-dasharray:none;stroke-opacity:1"
       d="m 415.4207,725.18559 c 8.48899,6.30413 24.96763,8.19537 41.44625,5.67372 16.47864,-2.52165 8.98834,-13.86909 -2.99611,-15.12992 -11.98446,-1.26083 -43.44366,-8.19537 -38.45014,9.4562 z"
       id="path4552"
       inkscape:connector-curvature="0" />
  </g>
</svg>
